<?xml version="1.0" encoding="UTF-8"?>
<!DOCTYPE svg PUBLIC "-//W3C//DTD SVG 1.1//EN" "http://www.w3.org/Graphics/SVG/1.1/DTD/svg11.dtd">
<!-- Creator: CorelDRAW 2017 -->
<svg xmlns="http://www.w3.org/2000/svg" xml:space="preserve" width="210mm" height="297mm" version="1.1" style="shape-rendering:geometricPrecision; text-rendering:geometricPrecision; image-rendering:optimizeQuality; fill-rule:evenodd; clip-rule:evenodd"
viewBox="0 0 21000 29700"
 xmlns:xlink="http://www.w3.org/1999/xlink">
 <defs>
  <style type="text/css">
   <![CDATA[
    .fil1 {fill:#5E5ECC}
    .fil2 {fill:#5E5ECC;fill-rule:nonzero}
    .fil0 {fill:#E01919;fill-rule:nonzero}
   ]]>
  </style>
 </defs>
 <g id="Layer_x0020_1">
  <metadata id="CorelCorpID_0Corel-Layer"/>
  <path class="fil0" d="M13988 7511c-261,-139 -537,-264 -813,-370l-299 787c245,94 488,204 719,327l393 -745z"/>
  <path class="fil0" d="M16638 9851c-170,-244 -356,-477 -554,-699l-627 563c176,197 341,404 492,620l689 -484z"/>
  <path class="fil0" d="M17927 13143c-40,-295 -97,-587 -172,-875l-815 215c67,255 117,516 152,777l834 -117z"/>
  <path class="fil0" d="M17568 16662c99,-281 181,-566 246,-857l-822 -183c-58,258 -130,511 -219,761l795 279z"/>
  <path class="fil0" d="M15641 19625c216,-205 419,-420 610,-649l-648 -538c-170,204 -351,395 -543,578l582 609z"/>
  <path class="fil1" d="M8059 20395c797,330 1670,512 2586,512l0 752c1020,0 1992,-203 2879,-571l-2877 -6947 -2 4 0 -7529c-1020,0 -1992,203 -2879,571l288 695c-827,343 -1570,844 -2193,1467l0 0 -532 -532c-694,693 -1253,1521 -1634,2441l695 288c-331,798 -514,1673 -514,2591l-752 0c0,1020 203,1992 571,2879l695 -288c343,827 846,1572 1469,2195l-532 532c694,694 1523,1253 2445,1634l288 -695zm2586 -6258l0 0z"/>
  <path class="fil2" d="M15655 16954c574,0 1093,233 1469,608 376,376 608,895 608,1469 0,574 -233,1093 -608,1469 -376,376 -895,609 -1469,609 -574,0 -1093,-233 -1469,-609 -376,-376 -608,-895 -608,-1469 0,-574 233,-1093 608,-1469 376,-376 895,-608 1469,-608zm946 1132c-242,-242 -576,-392 -946,-392 -369,0 -704,150 -946,392 -242,242 -392,576 -392,946 0,369 150,704 392,946 242,242 576,392 946,392 369,0 704,-150 946,-392 242,-242 392,-576 392,-946 0,-369 -150,-704 -392,-946z"/>
  <path class="fil0" d="M5175 23881c-141,-147 -292,-255 -452,-325 -160,-70 -337,-105 -531,-105 -156,0 -308,30 -457,91 -148,60 -277,145 -386,252 -113,112 -198,237 -254,375 -56,138 -85,290 -85,457 0,131 17,252 50,362 34,110 84,212 151,304 118,160 264,284 436,371 173,87 359,130 560,130 189,0 363,-37 525,-112 162,-74 309,-185 442,-333l0 445c-147,101 -304,178 -473,230 -169,52 -343,78 -524,78 -156,0 -308,-22 -456,-66 -148,-44 -286,-109 -416,-194 -215,-142 -379,-317 -493,-525 -114,-208 -171,-436 -171,-685 0,-217 38,-415 114,-592 76,-178 191,-339 348,-484 151,-139 317,-242 500,-311 183,-69 383,-103 599,-103 171,0 337,25 496,74 160,49 318,125 474,229l0 438zm600 2145l0 -2819 351 0 0 2499 1115 0 0 319 -1466 0zm3177 -240c161,0 315,-29 461,-87 146,-58 277,-144 394,-256 116,-110 204,-235 264,-375 61,-140 91,-288 91,-445 0,-158 -30,-308 -92,-451 -61,-143 -149,-268 -264,-377 -116,-110 -246,-195 -392,-252 -145,-58 -300,-87 -463,-87 -164,0 -319,29 -466,87 -147,58 -276,142 -389,252 -116,112 -204,238 -264,379 -61,141 -91,291 -91,449 0,156 30,304 89,443 60,139 149,264 266,377 118,113 250,198 394,256 145,58 299,87 461,87zm1578 -1163c0,202 -39,392 -117,570 -78,179 -191,337 -341,476 -149,139 -321,245 -516,321 -195,75 -396,112 -604,112 -209,0 -409,-37 -602,-112 -193,-76 -364,-182 -513,-321 -151,-140 -265,-299 -344,-478 -78,-178 -118,-367 -118,-568 0,-202 39,-392 118,-571 79,-179 193,-338 344,-478 148,-137 319,-243 513,-317 193,-74 394,-112 603,-112 210,0 412,37 606,112 194,74 366,180 514,317 149,139 263,298 341,476 78,179 117,370 117,573zm2970 -741c-141,-147 -292,-255 -452,-325 -160,-70 -337,-105 -531,-105 -156,0 -308,30 -457,91 -148,60 -277,145 -386,252 -113,112 -198,237 -254,375 -56,138 -85,290 -85,457 0,131 17,252 50,362 34,110 84,212 151,304 118,160 264,284 436,371 173,87 359,130 560,130 189,0 363,-37 525,-112 162,-74 309,-185 442,-333l0 445c-147,101 -304,178 -473,230 -169,52 -343,78 -524,78 -156,0 -308,-22 -456,-66 -148,-44 -286,-109 -416,-194 -215,-142 -379,-317 -493,-525 -114,-208 -171,-436 -171,-685 0,-217 38,-415 114,-592 76,-178 191,-339 348,-484 151,-139 317,-242 500,-311 183,-69 383,-103 599,-103 171,0 337,25 496,74 160,49 318,125 474,229l0 438zm600 2145l0 -2819 347 0 0 1254 1240 -1254 419 0 -1266 1269 1391 1550 -454 0 -1331 -1517 0 1517 -347 0zm2941 0l0 -1290 -999 -1529 405 0 772 1223 769 -1223 404 0 -999 1529 0 1290 -351 0z"/>
 </g>
</svg>
