<?xml version="1.0" encoding="UTF-8"?>
<!DOCTYPE svg PUBLIC "-//W3C//DTD SVG 1.1//EN" "http://www.w3.org/Graphics/SVG/1.1/DTD/svg11.dtd">
<!-- Creator: CorelDRAW 2017 -->
<svg xmlns="http://www.w3.org/2000/svg" xml:space="preserve" width="297mm" height="210mm" version="1.1" style="shape-rendering:geometricPrecision; text-rendering:geometricPrecision; image-rendering:optimizeQuality; fill-rule:evenodd; clip-rule:evenodd"
viewBox="0 0 29700 21000"
 xmlns:xlink="http://www.w3.org/1999/xlink">
 <defs>
  <style type="text/css">
   <![CDATA[
    .fil1 {fill:black}
    .fil0 {fill:black;fill-rule:nonzero}
   ]]>
  </style>
 </defs>
 <g id="Layer_x0020_1">
  <metadata id="CorelCorpID_0Corel-Layer"/>
  <path class="fil0" d="M7658 7370c-126,-67 -258,-127 -391,-178l-144 379c118,45 235,98 346,157l189 -358z"/>
  <path class="fil0" d="M8933 8495c-82,-117 -171,-229 -266,-336l-301 271c84,94 164,194 236,298l331 -233z"/>
  <path class="fil0" d="M9552 10077c-19,-142 -47,-282 -83,-421l-392 103c32,123 56,248 73,374l401 -56z"/>
  <path class="fil0" d="M9379 11769c48,-135 87,-272 118,-412l-395 -88c-28,124 -63,246 -105,366l382 134z"/>
  <path class="fil0" d="M8453 13193c104,-99 201,-202 293,-312l-312 -259c-82,98 -169,190 -261,278l280 293z"/>
  <path class="fil1" d="M4808 13564c383,158 803,246 1243,246l0 362c490,0 958,-98 1384,-274l-1383 -3340 -1 2 0 -3619c-490,0 -958,98 -1384,274l138 334c-397,165 -755,406 -1054,705l0 0 -256 -256c-333,333 -602,731 -786,1174l334 138c-159,384 -247,804 -247,1246l-362 0c0,490 98,958 274,1384l334 -138c165,398 406,756 706,1055l-256 256c334,334 732,602 1175,786l138 -334zm1243 -3008l0 0z"/>
  <path class="fil0" d="M8460 11909c276,0 525,112 706,293 181,181 293,430 293,706 0,276 -112,525 -293,706 -181,181 -430,293 -706,293 -276,0 -525,-112 -706,-293 -181,-181 -293,-430 -293,-706 0,-276 112,-525 293,-706 181,-181 430,-293 706,-293zm455 544c-116,-116 -277,-188 -455,-188 -178,0 -338,72 -455,188 -116,116 -188,277 -188,455 0,178 72,338 188,455 116,116 277,188 455,188 178,0 338,-72 455,-188 116,-116 188,-277 188,-455 0,-178 -72,-338 -188,-455z"/>
  <path class="fil0" d="M14121 9835c-136,-141 -281,-245 -434,-312 -154,-68 -324,-101 -510,-101 -150,0 -296,29 -439,87 -142,58 -267,139 -371,243 -109,107 -190,227 -244,360 -54,133 -81,279 -81,440 0,126 16,242 48,348 32,106 81,203 146,292 114,154 253,273 420,356 166,83 345,125 538,125 181,0 349,-36 504,-107 156,-71 297,-178 425,-320l0 428c-141,97 -293,171 -455,221 -162,50 -330,75 -504,75 -150,0 -296,-21 -438,-64 -142,-42 -275,-105 -400,-186 -206,-136 -365,-305 -474,-505 -109,-200 -164,-419 -164,-659 0,-208 36,-399 110,-569 73,-171 184,-326 334,-466 145,-133 305,-233 481,-299 176,-66 368,-99 576,-99 165,0 324,24 477,71 154,47 306,121 456,220l0 421zm576 2062l0 -2710 338 0 0 2403 1072 0 0 307 -1410 0zm3055 -231c155,0 303,-28 443,-84 140,-56 267,-138 379,-246 111,-106 196,-226 254,-361 58,-135 87,-277 87,-428 0,-152 -29,-296 -88,-433 -59,-137 -144,-258 -253,-363 -111,-106 -237,-187 -377,-243 -140,-56 -289,-83 -445,-83 -158,0 -307,28 -448,83 -141,56 -265,136 -374,243 -111,107 -196,229 -254,365 -58,136 -87,280 -87,431 0,150 28,292 86,426 58,133 143,254 255,363 114,109 240,191 379,246 139,56 287,83 443,83zm1517 -1118c0,194 -38,377 -113,548 -75,172 -184,324 -328,457 -144,133 -309,236 -496,308 -187,72 -381,108 -581,108 -201,0 -393,-36 -579,-108 -185,-73 -350,-175 -494,-308 -145,-135 -255,-287 -331,-459 -75,-171 -113,-353 -113,-546 0,-194 38,-377 113,-549 76,-172 186,-325 331,-460 142,-132 306,-234 493,-305 186,-71 379,-107 580,-107 202,0 396,36 583,107 187,71 351,173 494,305 144,133 253,286 328,458 75,172 113,356 113,551zm2856 -713c-136,-141 -281,-245 -434,-312 -154,-68 -324,-101 -510,-101 -150,0 -296,29 -439,87 -142,58 -267,139 -371,243 -109,107 -190,227 -244,360 -54,133 -81,279 -81,440 0,126 16,242 48,348 32,106 81,203 146,292 114,154 253,273 420,356 166,83 345,125 538,125 181,0 349,-36 504,-107 156,-71 297,-178 425,-320l0 428c-141,97 -293,171 -455,221 -162,50 -330,75 -504,75 -150,0 -296,-21 -438,-64 -142,-42 -275,-105 -400,-186 -206,-136 -365,-305 -474,-505 -109,-200 -164,-419 -164,-659 0,-208 36,-399 110,-569 73,-171 184,-326 334,-466 145,-133 305,-233 481,-299 176,-66 368,-99 576,-99 165,0 324,24 477,71 154,47 306,121 456,220l0 421zm576 2062l0 -2710 334 0 0 1205 1192 -1205 403 0 -1217 1220 1338 1490 -436 0 -1279 -1459 0 1459 -334 0zm2828 0l0 -1240 -961 -1470 389 0 743 1176 739 -1176 388 0 -961 1470 0 1240 -338 0z"/>
 </g>
</svg>
