<?xml version="1.0" encoding="UTF-8"?>
<!DOCTYPE svg PUBLIC "-//W3C//DTD SVG 1.1//EN" "http://www.w3.org/Graphics/SVG/1.1/DTD/svg11.dtd">
<!-- Creator: CorelDRAW 2017 -->
<svg xmlns="http://www.w3.org/2000/svg" xml:space="preserve" width="210mm" height="297mm" version="1.1" style="shape-rendering:geometricPrecision; text-rendering:geometricPrecision; image-rendering:optimizeQuality; fill-rule:evenodd; clip-rule:evenodd"
viewBox="0 0 21000 29700"
 xmlns:xlink="http://www.w3.org/1999/xlink">
 <defs>
  <style type="text/css">
   <![CDATA[
    .fil1 {fill:black}
    .fil0 {fill:black;fill-rule:nonzero}
   ]]>
  </style>
 </defs>
 <g id="Layer_x0020_1">
  <metadata id="CorelCorpID_0Corel-Layer"/>
  <path class="fil0" d="M13988 7511c-261,-139 -537,-264 -813,-370l-299 787c245,94 488,204 719,327l393 -745z"/>
  <path class="fil0" d="M16638 9851c-170,-244 -356,-477 -554,-699l-627 563c176,197 341,404 492,620l689 -484z"/>
  <path class="fil0" d="M17927 13143c-40,-295 -97,-587 -172,-875l-815 215c67,255 117,516 152,777l834 -117z"/>
  <path class="fil0" d="M17568 16662c99,-281 181,-566 246,-857l-822 -183c-58,258 -130,511 -219,761l795 279z"/>
  <path class="fil0" d="M15641 19625c216,-205 419,-420 610,-649l-648 -538c-170,204 -351,395 -543,578l582 609z"/>
  <path class="fil1" d="M8059 20395c797,330 1670,512 2586,512l0 752c1020,0 1992,-203 2879,-571l-2877 -6947 -2 4 0 -7529c-1020,0 -1992,203 -2879,571l288 695c-827,343 -1570,844 -2193,1467l0 0 -532 -532c-694,693 -1253,1521 -1634,2441l695 288c-331,798 -514,1673 -514,2591l-752 0c0,1020 203,1992 571,2879l695 -288c343,827 846,1572 1469,2195l-532 532c694,694 1523,1253 2445,1634l288 -695zm2586 -6258l0 0z"/>
  <path class="fil0" d="M15655 16954c574,0 1093,233 1469,608 376,376 608,895 608,1469 0,574 -233,1093 -608,1469 -376,376 -895,609 -1469,609 -574,0 -1093,-233 -1469,-609 -376,-376 -608,-895 -608,-1469 0,-574 233,-1093 608,-1469 376,-376 895,-608 1469,-608zm946 1132c-242,-242 -576,-392 -946,-392 -369,0 -704,150 -946,392 -242,242 -392,576 -392,946 0,369 150,704 392,946 242,242 576,392 946,392 369,0 704,-150 946,-392 242,-242 392,-576 392,-946 0,-369 -150,-704 -392,-946z"/>
 </g>
</svg>
